<?xml version="1.0" encoding="utf-8"?>
<svg viewBox="0 0 500 500" xmlns="http://www.w3.org/2000/svg">
  <g transform="matrix(0.1, 0, 0, -0.1, -671.464539, 795.793152)" fill="#000000" stroke="none">
    <path d="M 9166.606 6739.818 C 9164.159 6737.438 9125.003 6731.884 9080.952 6727.916 C 8934.932 6714.428 8679.602 6616.833 8542.556 6521.619 C 8404.693 6427.199 8242.359 6271.682 8148.546 6145.522 C 8079.208 6051.895 8025.369 5951.921 7982.133 5834.489 C 7914.426 5651.202 7911.163 5609.149 7908.715 4884.727 C 7907.085 4554.65 7908.715 4282.497 7911.163 4280.117 C 7916.873 4273.769 7973.16 4289.638 7985.396 4301.54 C 7991.107 4307.093 8027 4334.864 8065.34 4364.222 C 8103.68 4392.787 8149.362 4431.665 8167.309 4449.916 C 8200.755 4484.034 8235.016 4505.457 8256.227 4505.457 C 8262.752 4505.457 8310.882 4468.958 8363.09 4424.525 C 8482.19 4322.169 8598.842 4244.411 8713.048 4191.25 C 8815.833 4143.643 8955.326 4094.448 9015.692 4084.927 C 9038.533 4080.96 9069.532 4073.819 9085.031 4069.852 C 9101.346 4064.297 9191.079 4061.123 9297.127 4061.123 C 9511.67 4061.123 9567.956 4069.852 9766.185 4133.328 C 10063.934 4230.129 10413.076 4525.294 10559.096 4803.795 C 10644.75 4968.039 10680.643 5094.992 10701.037 5313.191 C 10710.01 5404.438 10709.194 5431.416 10696.959 5534.564 C 10674.933 5707.537 10656.171 5785.296 10608.041 5893.205 C 10590.91 5930.497 10577.858 5963.028 10577.858 5966.203 C 10577.858 5982.072 10486.494 6120.133 10433.47 6183.609 C 10329.87 6309.767 10238.506 6393.874 10083.513 6510.511 C 10036.198 6546.216 9922.809 6608.899 9855.917 6635.083 C 9824.919 6647.778 9788.21 6662.854 9774.342 6667.614 C 9761.29 6673.169 9729.476 6684.277 9705.003 6691.418 C 9680.53 6698.559 9649.532 6708.08 9635.664 6712.841 C 9622.612 6717.602 9581.824 6723.949 9545.931 6727.916 C 9468.435 6737.438 9172.316 6746.167 9166.606 6739.818 Z M 9488.013 6064.591 C 9774.342 5994.766 9964.412 5783.709 10011.725 5485.37 C 10035.383 5330.647 9992.964 5152.914 9899.152 5016.44 C 9796.367 4866.478 9625.875 4760.155 9443.962 4730.797 C 8999.377 4660.18 8624.131 4933.921 8598.842 5348.103 C 8584.974 5571.857 8656.761 5759.905 8809.307 5898.759 C 8904.75 5985.246 8981.43 6026.505 9109.504 6060.624 C 9181.29 6080.46 9414.595 6082.046 9488.013 6064.591 Z" style="fill: rgb(75, 73, 172); fill-rule: nonzero; paint-order: fill;"/>
  </g>
</svg>