<?xml version="1.0" encoding="utf-8"?>
<svg viewBox="0 0 500 500" xmlns="http://www.w3.org/2000/svg">
  <g transform="matrix(0.025404, 0, 0, -0.029675, 2.876077, 397.661591)" fill="#000000" stroke="none" style="">
    <path d="M2620 6676 c-3 -3 -51 -10 -105 -15 -179 -17 -492 -140 -660 -260 -169 -119 -368 -315 -483 -474 -85 -118 -151 -244 -204 -392 -83 -231 -87 -284 -90 -1197 -2 -416 0 -759 3 -762 7 -8 76 12 91 27 7 7 51 42 98 79 47 36 103 85 125 108 41 43 83 70 109 70 8 0 67 -46 131 -102 146 -129 289 -227 429 -294 126 -60 297 -122 371 -134 28 -5 66 -14 85 -19 20 -7 130 -11 260 -11 263 0 332 11 575 91 365 122 793 494 972 845 105 207 149 367 174 642 11 115 10 149 -5 279 -27 218 -50 316 -109 452 -21 47 -37 88 -37 92 0 20 -112 194 -177 274 -127 159 -239 265 -429 412 -58 45 -197 124 -279 157 -38 16 -83 35 -100 41 -16 7 -55 21 -85 30 -30 9 -68 21 -85 27 -16 6 -66 14 -110 19 -95 12 -458 23 -465 15z m394 -851 c351 -88 584 -354 642 -730 29 -195 -23 -419 -138 -591 -126 -189 -335 -323 -558 -360 -545 -89 -1005 256 -1036 778 -17 282 71 519 258 694 117 109 211 161 368 204 88 25 374 27 464 5z" style="fill: rgb(75, 73, 172);"/>
    <path d="M12420 5820 c-19 -4 -59 -13 -88 -19 -68 -14 -192 -73 -262 -124 -160 -117 -293 -322 -336 -516 -22 -98 -14 -318 14 -401 94 -271 286 -479 512 -553 112 -38 174 -47 304 -47 109 0 152 5 237 26 203 50 368 154 396 249 8 25 13 134 14 285 2 212 0 249 -14 277 -33 63 -31 63 -360 63 -327 0 -342 -2 -390 -59 -56 -67 -56 -155 0 -222 42 -49 77 -59 214 -59 157 0 189 -12 189 -75 0 -90 -63 -124 -246 -132 -105 -5 -131 -3 -191 15 -295 90 -427 425 -276 700 47 86 124 162 206 202 59 29 80 34 166 38 145 7 229 -18 359 -106 46 -32 62 -37 110 -37 70 1 108 22 144 79 41 64 43 88 15 148 -22 49 -60 95 -118 143 -30 25 -150 85 -170 85 -9 0 -19 3 -23 7 -30 31 -313 53 -406 33z" style="fill: rgb(75, 73, 172);"/>
    <path d="M14155 5820 c-22 -5 -58 -11 -80 -16 -63 -11 -213 -80 -271 -124 -306 -231 -430 -610 -314 -952 42 -120 94 -209 182 -309 84 -95 182 -164 293 -207 140 -53 160 -57 320 -56 139 1 157 3 240 31 124 42 140 50 220 109 161 118 275 279 337 474 20 65 23 95 22 220 0 166 -14 226 -84 370 -143 292 -428 473 -737 469 -48 -1 -106 -5 -128 -9z m276 -370 c191 -59 322 -248 323 -465 1 -187 -107 -355 -280 -437 -66 -32 -74 -33 -195 -33 -124 0 -126 0 -200 37 -172 86 -275 251 -274 443 1 171 99 339 246 423 71 40 112 50 225 51 66 1 110 -5 155 -19z" style="fill: rgb(75, 73, 172);"/>
    <path d="M15950 5810 c-310 -65 -540 -289 -641 -622 -34 -112 -32 -292 6 -413 65 -214 180 -374 347 -481 155 -100 278 -134 481 -134 115 0 146 4 244 30 209 56 356 154 381 252 8 30 12 137 12 290 0 223 -2 246 -20 275 -10 17 -28 37 -40 43 -14 7 -117 10 -328 8 l-309 -3 -35 -27 c-69 -53 -85 -156 -37 -235 36 -57 67 -67 225 -73 124 -4 145 -8 164 -25 18 -16 21 -28 17 -63 -10 -89 -73 -117 -262 -117 -165 0 -227 17 -322 90 -117 89 -178 202 -190 355 -14 188 99 386 270 470 59 29 80 34 166 38 143 7 235 -20 347 -100 91 -65 174 -60 246 14 76 78 75 140 -5 235 -144 172 -440 252 -717 193z" style="fill: rgb(75, 73, 172);"/>
    <path d="M10820 5806 c-56 -20 -89 -76 -194 -326 -53 -129 -108 -259 -122 -288 -13 -29 -24 -57 -24 -62 0 -6 -4 -18 -10 -28 -16 -30 -46 -105 -145 -367 -13 -33 -49 -125 -81 -205 -66 -164 -71 -208 -35 -278 18 -35 33 -48 77 -68 66 -29 93 -30 144 -4 45 23 76 68 128 180 54 120 25 110 333 110 l268 0 20 -26 c12 -15 21 -31 21 -37 0 -26 72 -159 103 -190 80 -80 196 -67 257 29 47 75 39 134 -43 334 -35 83 -128 319 -169 430 -12 30 -27 69 -34 85 -7 17 -29 73 -50 125 -20 52 -45 113 -55 135 -9 22 -32 76 -50 120 -17 44 -42 103 -55 132 -13 28 -24 55 -25 60 -1 24 -79 120 -109 135 -41 20 -101 22 -150 4z m147 -815 c24 -58 43 -119 43 -137 0 -31 -3 -34 -42 -45 -50 -13 -173 -6 -194 12 -20 16 -17 48 7 94 12 22 28 60 35 86 20 65 50 101 82 97 23 -3 32 -16 69 -107z" style="fill: rgb(75, 73, 172);"/>
    <path d="M17059 5807 c-35 -16 -54 -37 -80 -86 -37 -71 -22 -134 91 -386 9 -22 54 -128 100 -235 45 -107 90 -213 100 -235 10 -22 23 -53 29 -68 7 -17 11 -105 11 -231 0 -226 10 -282 59 -339 40 -45 119 -73 165 -57 52 17 84 46 114 103 26 51 26 55 30 277 2 129 8 238 14 255 14 39 78 182 145 324 29 62 53 115 53 117 0 1 15 35 34 76 18 40 46 100 61 133 15 33 36 89 46 125 18 62 18 67 2 113 -34 95 -120 143 -211 118 -76 -20 -99 -57 -201 -311 -34 -85 -69 -171 -79 -190 -27 -56 -82 -52 -97 7 -5 23 -77 210 -137 358 -46 115 -157 173 -249 132z" style="fill: rgb(75, 73, 172);"/>
    <path d="M6487 5803 c-41 -7 -83 -48 -112 -109 l-25 -53 0 -645 c0 -621 1 -647 20 -699 25 -66 63 -104 125 -122 43 -14 51 -13 90 4 51 22 81 53 106 106 16 35 19 66 19 236 0 119 4 209 11 228 14 41 41 51 134 51 239 0 413 127 479 349 21 71 22 249 1 317 -33 111 -143 251 -231 292 -27 13 -58 29 -69 35 -20 12 -487 20 -548 10z m468 -384 c13 -13 29 -44 36 -69 27 -103 -22 -182 -123 -194 -66 -8 -122 0 -140 21 -8 10 -14 56 -16 119 -4 100 -4 103 23 130 25 25 30 26 111 22 73 -4 88 -8 109 -29z" style="fill: rgb(75, 73, 172);"/>
    <path d="M7630 5803 c-14 -3 -40 -19 -57 -36 -66 -62 -64 -40 -61 -792 3 -739 0 -700 61 -756 63 -57 98 -62 405 -57 192 3 288 9 312 18 45 16 96 55 112 83 19 36 27 100 18 137 -11 40 -61 93 -103 109 -16 7 -109 11 -221 11 -238 0 -228 -6 -234 139 -3 76 -1 105 12 128 l16 31 207 4 c188 3 211 5 243 24 98 57 118 184 42 266 -49 52 -78 57 -304 58 -184 0 -188 0 -200 23 -18 33 -22 196 -6 227 l14 25 194 5 c181 5 198 7 242 29 63 32 84 56 99 113 17 62 0 116 -51 172 l-39 41 -338 1 c-186 1 -349 0 -363 -3z" style="fill: rgb(75, 73, 172);"/>
    <path d="M8777 5803 c-40 -6 -101 -72 -121 -128 -14 -43 -16 -121 -16 -680 0 -700 0 -705 63 -768 54 -53 118 -67 303 -66 187 0 381 28 495 71 131 49 308 204 389 339 88 148 138 331 126 464 -12 147 -77 317 -171 445 -57 77 -97 117 -185 183 -69 52 -89 62 -215 109 l-80 30 -280 3 c-154 2 -293 1 -308 -2z m587 -368 c67 -18 82 -27 154 -97 37 -36 65 -77 93 -134 38 -81 39 -85 39 -196 0 -133 -15 -195 -62 -269 -87 -134 -185 -194 -344 -210 -121 -13 -214 -6 -231 18 -10 13 -13 118 -13 444 l0 428 22 15 c31 22 260 22 342 1z" style="fill: rgb(75, 73, 172);"/>
  </g>
</svg>